HIERARCHY
ROOT Hips
{
    OFFSET 0.000000 0.000000 0.000000
    CHANNELS 6 Xposition Yposition Zposition Zrotation Xrotation Yrotation
        JOINT Chest
        {
            OFFSET -0.000000 31.986500 -0.000000
            CHANNELS 3 Zrotation Xrotation Yrotation
            JOINT Neck
            {
                OFFSET -0.000000 24.131615 0.000000
                CHANNELS 3 Zrotation Xrotation Yrotation
                JOINT Head
                {
                    OFFSET -0.000000 10.450000 0.000000
                    CHANNELS 3 Zrotation Xrotation Yrotation
                    End Site
                    {
                        OFFSET -0.000000 16.150003 0.000000
                    }
                }
            }
            JOINT LeftCollar
            {
                OFFSET -0.000000 24.131615 0.000000
                CHANNELS 3 Zrotation Xrotation Yrotation
                JOINT LeftShoulder
                {
                    OFFSET 20.000000 -0.000000 0.000000
                    CHANNELS 3 Zrotation Xrotation Yrotation
                    JOINT LeftElbow
                    {
                        OFFSET 22.686384 0.000000 0.000000
                        CHANNELS 3 Zrotation Xrotation Yrotation
                        JOINT LeftWrist
                        {
                            OFFSET 24.813133 0.000000 0.000000
                            CHANNELS 3 Zrotation Xrotation Yrotation
                            End Site
                            {
                                OFFSET 0.000000 -14.250000 0.000000
                            }
                        }
                    }
                }
            }
            JOINT RightCollar
            {
                OFFSET -0.000000 24.131615 0.000000
                CHANNELS 3 Zrotation Xrotation Yrotation
                JOINT RightShoulder
                {
                    OFFSET -20.000000 0.000000 0.000000
                    CHANNELS 3 Zrotation Xrotation Yrotation
                    JOINT RightElbow
                    {
                        OFFSET -22.686384 0.000000 0.000000
                        CHANNELS 3 Zrotation Xrotation Yrotation
                        JOINT RightWrist
                        {
                            OFFSET -24.813133 0.000000 0.000000
                            CHANNELS 3 Zrotation Xrotation Yrotation
                            End Site
                            {
                                OFFSET -0.000000 -14.250000 0.000000
                            }
                        }
                    }
                }
            }
        }
    JOINT LeftHip
    {
        OFFSET 11.400001 0.000000 0.000000
        CHANNELS 3 Zrotation Xrotation Yrotation
        JOINT LeftKnee
        {
            OFFSET -0.000000 -38.315727 0.000000
            CHANNELS 3 Zrotation Xrotation Yrotation
            JOINT LeftAnkle
            {
                OFFSET -0.000000 -38.060658 0.000000
                CHANNELS 3 Zrotation Xrotation Yrotation
                End Site
                {
                    OFFSET -0.000000 -4.750000 16.150003
                }
            }
        }
    }
    JOINT RightHip
    {
        OFFSET -11.400001 0.000000 0.000000
        CHANNELS 3 Zrotation Xrotation Yrotation
        JOINT RightKnee
        {
            OFFSET -0.000000 -38.315727 0.000000
            CHANNELS 3 Zrotation Xrotation Yrotation
            JOINT RightAnkle
            {
                OFFSET -0.000000 -38.060658 0.000000
                CHANNELS 3 Zrotation Xrotation Yrotation
                End Site
                {
                    OFFSET -0.000000 -4.750000 16.150003
                }
            }
        }
    }
}
MOTION
Frames:    8
Frame Time:    0.010000
49.928539    84.154343    -19.101276    -3.071750    5.185213    -88.674461    4.772763    4.290515    3.347818    -6.542806    13.823049    20.645273    -20.045797    -25.803242    16.847517    -24.873293    -0.767317    3.633545    -50.366920    23.329681    -14.553435    14.208763    -3.770412    -29.735380    105.960670    24.667276    52.442142    27.888338    -0.625455    -2.438994    2.775996    63.307804    38.296577    2.033216    0.969599    52.549988    -107.983879    -13.184853    17.105127    14.350307    -5.593803    4.589229    0.548809    9.898784    2.492630    -6.700936    0.779697    29.390238    11.601153    11.488690    -3.866954    -5.706997    1.620420    -1.258602    0.727783    -14.816720    -19.943352    
49.924141    84.154869    -19.106012    -3.041966    5.185412    -88.702278    4.470262    4.082693    3.303361    -3.892167    14.738970    19.539141    -17.050741    -24.084929    15.335688    -24.626781    -0.566864    1.736399    -50.312618    23.644560    -13.687042    13.973744    -3.687640    -29.634949    106.129120    24.369423    52.268501    28.250061    -0.821684    -3.936073    3.486976    62.820786    37.784225    1.834108    0.831518    52.516491    -107.918404    -13.150700    16.923712    14.355780    -5.583539    4.466544    0.520941    9.851307    2.602077    -6.707237    0.782416    29.435392    11.589624    11.475752    -3.890497    -5.695867    1.581811    -1.239411    0.780982    -14.814171    -19.907875    
49.910633    84.138130    -19.106548    -3.005573    5.183809    -88.729881    4.430202    4.044313    3.293501    -3.892571    14.762138    19.570486    -17.194061    -24.299496    15.340080    -24.613411    -0.477939    1.804584    -50.274754    23.800224    -13.841096    14.200499    -3.793729    -29.685213    106.133331    24.869570    52.594158    28.224403    -0.912924    -3.946194    3.606711    62.973568    37.615711    1.828874    0.897399    52.538841    -107.902237    -13.220393    16.890566    14.351707    -5.594993    4.426811    0.522443    9.822486    2.680880    -6.715402    0.799172    29.428783    11.594995    11.441609    -3.873930    -5.712453    1.590041    -1.195447    0.731553    -14.803765    -19.939766    
49.907562    84.140381    -19.110128    -2.983449    5.182732    -88.750748    4.396491    4.029178    3.277474    -3.880714    14.734016    19.588644    -17.174734    -24.379030    15.351710    -24.597010    -0.433163    1.821462    -50.270618    23.853807    -13.915106    14.283731    -3.801641    -29.699142    106.155838    25.034134    52.723904    28.215872    -0.964799    -3.963597    3.650178    63.061180    37.536121    1.813492    0.923328    52.560757    -107.908257    -13.234284    16.854237    14.352858    -5.596309    4.398635    0.516869    9.802697    2.725281    -6.718550    0.803196    29.436939    11.591518    11.426103    -3.874332    -5.714155    1.582217    -1.172026    0.728847    -14.799675    -19.940777    
49.904232    84.144470    -19.114555    -2.960216    5.181551    -88.775085    4.359639    4.013565    3.259813    -3.870125    14.703764    19.608749    -17.154917    -24.471807    15.364052    -24.578285    -0.388308    1.837020    -50.274422    23.898941    -13.974483    14.316459    -3.788059    -29.694822    106.244965    25.212572    52.815994    28.207714    -0.998579    -3.982824    3.669486    63.136284    37.478554    1.820245    0.886123    52.571110    -107.924438    -13.272691    16.853601    14.354773    -5.596392    4.377109    0.511919    9.782355    2.766060    -6.722563    0.806200    29.445087    11.587530    11.410571    -3.873693    -5.716141    1.574120    -1.146389    0.724766    -14.795116    -19.941586    
49.900024    84.149544    -19.119579    -2.937054    5.180276    -88.802628    4.320423    3.998448    3.240532    -3.862705    14.675576    19.629690    -17.131866    -24.579960    15.374989    -24.555273    -0.421849    1.849042    -50.297085    24.015841    -13.997608    14.395418    -3.865227    -29.726364    106.372070    25.450418    52.866749    28.203011    -0.998251    -4.006456    3.682040    63.190037    37.417374    1.779252    0.888941    52.584469    -107.843254    -13.311051    16.848139    14.357363    -5.593889    4.360281    0.507298    9.761149    2.804056    -6.727516    0.808276    29.453978    11.583198    11.396256    -3.871463    -5.718487    1.565863    -1.120219    0.719278    -14.790215    -19.941198    
49.894421    84.154877    -19.124907    -2.915084    5.178739    -88.833015    4.280275    3.985623    3.219519    -3.867260    14.648214    19.653893    -17.100346    -24.704857    15.386793    -24.533882    -0.386875    1.861454    -50.312782    24.049036    -14.028690    14.337953    -3.809733    -29.695141    106.569595    25.630331    52.833382    28.197933    -1.025939    -4.033399    3.610320    63.282593    37.443768    1.664800    0.825520    52.565529    -107.781830    -13.352489    16.780752    14.360310    -5.588204    4.349497    0.503255    9.740142    2.836980    -6.733187    0.808792    29.463993    11.578334    11.384227    -3.867318    -5.720941    1.557737    -1.094858    0.712206    -14.785091    -19.938936    
49.886990    84.159920    -19.130283    -2.895500    5.176692    -88.865555    4.238881    3.976068    3.196412    -3.878211    14.624884    19.677788    -17.065508    -24.844091    15.395999    -24.510578    -0.414107    1.868988    -50.331135    24.154385    -14.057943    14.400946    -3.822820    -29.721184    106.776192    25.908470    52.802628    28.198391    -1.025971    -4.067587    3.549826    63.367882    37.442665    1.584974    0.786348    52.558907    -107.743629    -13.397007    16.728657    14.363256    -5.579662    4.351232    0.500952    9.722071    2.857729    -6.739372    0.806452    29.474785    11.572752    11.375685    -3.861140    -5.723303    1.549850    -1.071681    0.703448    -14.779798    -19.934298    
